<?xml version="1.0" standalone="no"?>
<!DOCTYPE svg PUBLIC "-//W3C//DTD SVG 20010904//EN"
 "http://www.w3.org/TR/2001/REC-SVG-20010904/DTD/svg10.dtd">
<svg version="1.0" xmlns="http://www.w3.org/2000/svg"
 width="1152.000000pt" height="920.000000pt" viewBox="0 0 1152.000000 920.000000"
 preserveAspectRatio="xMidYMid meet">
<metadata>
Created by potrace 1.16, written by Peter Selinger 2001-2019
</metadata>
<g transform="translate(0.000000,920.000000) scale(0.100000,-0.100000)"
fill="#000000" stroke="none">
<path d="M280 8700 l0 -280 275 0 275 0 0 -270 0 -270 -275 0 -275 0 0 -280 0
-280 275 0 275 0 0 -265 0 -265 -275 0 -275 0 0 -280 0 -280 275 0 275 0 0
-270 0 -270 -275 0 -275 0 0 -275 0 -275 275 0 275 0 0 -270 0 -270 -275 0
-275 0 0 -280 0 -280 275 0 275 0 0 -270 0 -270 -275 0 -275 0 0 -275 0 -275
275 0 275 0 0 -270 0 -270 -275 0 -275 0 0 -280 0 -280 275 0 275 0 0 -270 0
-270 -275 0 -275 0 0 -275 0 -275 275 0 275 0 0 -275 0 -275 280 0 280 0 0
275 0 275 265 0 265 0 0 -275 0 -275 280 0 280 0 0 270 0 270 105 0 c98 0 105
-1 105 -20 0 -18 7 -20 60 -20 53 0 60 2 60 20 0 19 7 20 105 20 l105 0 0
-270 0 -270 280 0 280 0 0 270 0 270 265 0 265 0 0 -270 0 -270 280 0 280 0 0
270 0 270 270 0 270 0 0 -270 0 -270 275 0 275 0 0 270 0 270 270 0 270 0 0
-270 0 -270 280 0 280 0 0 270 0 270 270 0 270 0 0 -270 0 -270 275 0 275 0 0
270 0 270 270 0 270 0 0 -270 0 -270 280 0 280 0 0 270 0 270 67 0 c46 0 72
-5 84 -16 14 -12 22 -13 38 -4 12 6 21 15 21 20 0 6 66 10 165 10 l165 0 0
-275 0 -275 275 0 275 0 0 275 0 275 270 0 270 0 0 -275 0 -275 280 0 280 0 0
280 0 280 -275 0 -275 0 0 270 0 270 275 0 275 0 0 275 0 275 -275 0 -275 0 0
270 0 270 275 0 275 0 0 280 0 280 -275 0 -275 0 0 265 0 265 275 0 275 0 0
280 0 280 -275 0 -275 0 0 270 0 270 275 0 275 0 0 275 0 275 -275 0 -275 0 0
270 0 270 275 0 275 0 0 280 0 280 -275 0 -275 0 0 270 0 270 275 0 275 0 0
275 0 275 -275 0 -275 0 0 270 0 270 275 0 275 0 0 280 0 280 -275 0 -275 0 0
275 0 275 -280 0 -280 0 0 -275 0 -275 -265 0 -265 0 0 275 0 275 -280 0 -280
0 0 -270 0 -270 -105 0 c-98 0 -105 1 -105 20 0 18 -7 20 -60 20 -53 0 -60 -2
-60 -20 0 -19 -7 -20 -105 -20 l-105 0 0 270 0 270 -280 0 -280 0 0 -270 0
-270 -265 0 -265 0 0 270 0 270 -280 0 -280 0 0 -270 0 -270 -270 0 -270 0 0
270 0 270 -275 0 -275 0 0 -270 0 -270 -270 0 -270 0 0 270 0 270 -280 0 -280
0 0 -270 0 -270 -270 0 -270 0 0 270 0 270 -275 0 -275 0 0 -270 0 -270 -270
0 -270 0 0 270 0 270 -280 0 -280 0 0 -270 0 -270 -69 0 c-39 0 -73 5 -76 10
-10 15 -55 12 -61 -5 -5 -12 -34 -15 -170 -15 l-164 0 0 275 0 275 -275 0
-275 0 0 -275 0 -275 -270 0 -270 0 0 275 0 275 -280 0 -280 0 0 -280z m1640
-445 c0 -95 -4 -165 -9 -165 -19 0 -23 -41 -7 -59 11 -12 16 -37 16 -84 l0
-67 -265 0 -265 0 0 270 0 270 265 0 265 0 0 -165z m6800 140 c0 -23 3 -25 50
-25 43 0 50 3 50 20 0 17 7 20 39 20 113 0 301 -77 418 -170 165 -132 275
-328 299 -532 6 -55 6 -58 -15 -58 -19 0 -21 -6 -21 -50 0 -43 3 -50 20 -50
20 0 20 -7 20 -2960 0 -2953 0 -2960 -20 -2960 -17 0 -20 -7 -20 -50 0 -44 2
-50 21 -50 20 0 21 -3 15 -61 -37 -328 -308 -613 -648 -683 -99 -21 -108 -20
-108 4 0 17 -7 20 -50 20 -43 0 -50 -3 -50 -20 0 -20 -7 -20 -2960 -20 -2953
0 -2960 0 -2960 20 0 17 -7 20 -50 20 -43 0 -50 -3 -50 -20 0 -24 -9 -25 -107
-4 -168 35 -309 112 -425 232 -131 137 -205 286 -224 451 -6 58 -5 61 15 61
19 0 21 6 21 50 0 43 -3 50 -20 50 -20 0 -20 7 -20 2960 0 2953 0 2960 20
2960 17 0 20 7 20 50 0 44 -2 50 -21 50 -21 0 -21 3 -16 58 22 198 135 400
300 532 117 93 305 170 418 170 32 0 39 -3 39 -20 0 -17 7 -20 50 -20 47 0 50
2 50 25 l0 25 2960 0 2960 0 0 -25z m870 -140 c0 -137 -2 -165 -14 -165 -23 0
-30 -39 -12 -59 11 -12 16 -37 16 -85 0 -80 -12 -83 -44 -10 -52 123 -139 234
-250 322 -64 51 -169 112 -218 126 -10 3 -18 10 -18 16 0 17 127 12 155 -6 22
-14 25 -14 42 4 16 19 32 20 181 21 l162 1 0 -165z m1090 -105 l0 -270 -270 0
-270 0 0 270 0 270 270 0 270 0 0 -270z m-9300 -550 l0 -270 -270 0 -270 0 0
270 0 270 270 0 270 0 0 -270z m8750 0 l0 -270 -265 0 -265 0 0 110 0 110 25
0 c24 0 25 3 25 55 0 52 -1 55 -25 55 l-25 0 0 105 0 105 265 0 265 0 0 -270z
m-8210 -545 l0 -265 -265 0 -265 0 0 265 0 265 265 0 265 0 0 -265z m8760 0
l0 -265 -270 0 -270 0 0 265 0 265 270 0 270 0 0 -265z m-9300 -545 l0 -270
-270 0 -270 0 0 270 0 270 270 0 270 0 0 -270z m8750 0 l0 -270 -265 0 -265 0
0 270 0 270 265 0 265 0 0 -270z m-8210 -550 l0 -270 -265 0 -265 0 0 270 0
270 265 0 265 0 0 -270z m8760 0 l0 -270 -270 0 -270 0 0 270 0 270 270 0 270
0 0 -270z m-9300 -550 l0 -270 -270 0 -270 0 0 270 0 270 270 0 270 0 0 -270z
m8750 0 l0 -270 -265 0 -265 0 0 270 0 270 265 0 265 0 0 -270z m-8210 -540
l0 -270 -265 0 -265 0 0 270 0 270 265 0 265 0 0 -270z m8760 0 l0 -270 -270
0 -270 0 0 270 0 270 270 0 270 0 0 -270z m-9300 -550 l0 -270 -270 0 -270 0
0 270 0 270 270 0 270 0 0 -270z m8750 0 l0 -270 -265 0 -265 0 0 270 0 270
265 0 265 0 0 -270z m-8210 -550 l0 -270 -265 0 -265 0 0 270 0 270 265 0 265
0 0 -270z m8760 0 l0 -270 -270 0 -270 0 0 270 0 270 270 0 270 0 0 -270z
m-9300 -545 l0 -265 -270 0 -270 0 0 265 0 265 270 0 270 0 0 -265z m8750 0
l0 -265 -265 0 -265 0 0 265 0 265 265 0 265 0 0 -265z m-8210 -545 l0 -270
-265 0 -265 0 0 270 0 270 265 0 265 0 0 -270z m8760 0 l0 -270 -270 0 -270 0
0 270 0 270 270 0 270 0 0 -270z m-9300 -550 l0 -270 -270 0 -270 0 0 270 0
270 270 0 270 0 0 -270z m8750 0 l0 -270 -265 0 -265 0 0 270 0 270 265 0 265
0 0 -270z m-8210 -385 l0 -105 -25 0 c-24 0 -25 -3 -25 -55 0 -52 1 -55 25
-55 l25 0 0 -110 0 -110 -265 0 -265 0 0 270 0 270 265 0 265 0 0 -105z m8760
-165 l0 -270 -270 0 -270 0 0 270 0 270 270 0 270 0 0 -270z m-9300 -540 l0
-270 -270 0 -270 0 0 270 0 270 270 0 270 0 0 -270z m595 228 c71 -181 260
-374 438 -448 32 -13 57 -27 57 -32 0 -12 -138 -10 -145 2 -9 15 -41 12 -55
-5 -10 -12 -43 -15 -176 -15 l-164 0 0 158 c0 145 2 159 20 175 24 20 26 40 5
57 -17 14 -22 150 -6 150 5 0 16 -19 26 -42z m8155 -228 l0 -270 -265 0 -265
0 0 159 c0 129 3 161 15 171 8 7 15 20 15 30 0 10 -7 23 -15 30 -11 9 -15 32
-15 81 l0 69 265 0 265 0 0 -270z"/>
<path d="M5440 6810 c0 -17 -7 -20 -40 -20 -22 0 -40 5 -40 10 0 6 -11 10 -24
10 -32 0 -43 -30 -19 -49 17 -14 16 -17 -27 -57 -35 -33 -47 -40 -53 -28 -11
19 -43 18 -51 -1 -6 -18 2 -45 15 -45 5 0 9 -16 9 -35 0 -31 -3 -35 -25 -35
-23 0 -25 -3 -25 -50 0 -47 2 -50 25 -50 l25 0 0 -1865 0 -1865 -25 0 c-23 0
-25 -3 -25 -50 0 -47 2 -50 25 -50 21 0 25 -5 25 -32 0 -17 -7 -39 -16 -49
-22 -24 -11 -49 21 -49 17 0 25 6 25 17 0 11 15 1 46 -30 42 -43 44 -48 30
-63 -12 -12 -13 -20 -6 -35 13 -23 33 -25 50 -4 7 8 28 15 46 15 27 0 34 -4
34 -20 0 -17 7 -20 44 -20 35 0 45 4 49 20 5 19 14 20 227 20 213 0 222 -1
227 -20 4 -16 14 -20 49 -20 37 0 44 3 44 20 0 16 7 20 34 20 18 0 39 -7 46
-15 17 -21 37 -19 50 4 7 15 6 23 -6 35 -14 15 -12 20 30 63 31 31 46 41 46
30 0 -11 8 -17 25 -17 32 0 43 25 21 49 -9 10 -16 32 -16 49 0 27 4 32 25 32
23 0 25 3 25 50 0 47 -2 50 -25 50 l-25 0 0 1865 0 1865 25 0 c23 0 25 3 25
50 0 47 -2 50 -25 50 -22 0 -25 4 -25 35 0 19 4 35 9 35 13 0 21 27 15 45 -8
19 -40 20 -51 1 -6 -12 -18 -5 -53 28 -43 40 -44 43 -27 57 24 19 13 49 -19
49 -13 0 -24 -4 -24 -10 0 -5 -18 -10 -40 -10 -33 0 -40 3 -40 20 0 17 -7 20
-45 20 -38 0 -45 -3 -45 -20 0 -19 -7 -20 -230 -20 -223 0 -230 1 -230 20 0
17 -7 20 -45 20 -38 0 -45 -3 -45 -20z m320 -305 l0 -265 -265 0 -265 0 0 105
c0 98 1 105 20 105 18 0 20 7 20 54 0 47 -3 55 -20 58 -19 3 -19 4 4 53 25 55
81 110 132 131 42 17 44 17 44 -1 0 -12 13 -15 55 -15 48 0 55 2 55 20 0 19 7
20 110 20 l110 0 0 -265z m530 -545 l0 -270 -265 0 -265 0 0 270 0 270 265 0
265 0 0 -270z m-530 -550 l0 -270 265 0 265 0 0 -270 0 -270 -265 0 -265 0 0
270 0 270 -265 0 -265 0 0 270 0 270 265 0 265 0 0 -270z m0 -1090 l0 -270
-265 0 -265 0 0 270 0 270 265 0 265 0 0 -270z m530 -550 l0 -270 -265 0 -265
0 0 270 0 270 265 0 265 0 0 -270z m-530 -545 l0 -265 -265 0 -265 0 0 265 0
265 265 0 265 0 0 -265z m530 -385 c0 -103 -1 -110 -20 -110 -18 0 -20 -7 -20
-55 0 -48 2 -55 20 -55 17 0 18 -3 9 -27 -19 -51 -61 -102 -109 -133 -51 -33
-80 -38 -80 -15 0 12 -13 15 -55 15 -48 0 -55 -2 -55 -20 0 -19 -7 -20 -110
-20 l-110 0 0 265 0 265 265 0 265 0 0 -110z"/>
<path d="M3800 5170 c0 -17 -7 -20 -39 -20 -22 0 -43 5 -46 10 -10 16 -42 12
-49 -7 -4 -9 0 -23 9 -32 13 -14 11 -20 -27 -58 -36 -37 -43 -40 -53 -26 -8
10 -19 13 -33 9 -26 -8 -29 -38 -6 -56 23 -20 14 -64 -13 -68 -20 -3 -23 -9
-23 -52 0 -43 3 -49 23 -52 l22 -3 3 -1042 2 -1043 -25 0 c-23 0 -25 -3 -25
-49 0 -44 3 -50 23 -53 29 -4 36 -52 12 -79 -10 -10 -15 -25 -12 -34 8 -19 46
-20 53 0 5 11 17 3 51 -31 41 -43 43 -47 26 -59 -14 -11 -16 -18 -7 -31 15
-25 29 -27 47 -9 23 23 78 20 84 -5 8 -29 88 -29 96 0 5 19 14 20 226 20 214
0 221 -1 221 -20 0 -17 7 -20 50 -20 43 0 50 3 50 20 0 16 7 20 32 20 17 0 39
-7 48 -15 10 -9 25 -13 34 -9 19 7 22 50 4 57 -8 3 4 21 31 48 27 27 46 39 48
32 7 -19 50 -16 57 3 4 9 0 24 -9 34 -8 9 -15 31 -15 48 0 25 4 32 20 32 17 0
20 7 20 50 0 43 -3 50 -20 50 -20 0 -20 7 -20 1045 0 1038 0 1045 20 1045 17
0 20 7 20 50 0 43 -3 50 -20 50 -16 0 -20 7 -20 31 0 17 7 37 15 46 18 18 16
32 -9 47 -13 9 -20 7 -30 -7 -12 -16 -17 -14 -58 28 -32 31 -41 46 -31 50 23
8 11 50 -14 53 -13 2 -23 -1 -23 -7 0 -6 -18 -11 -40 -11 -33 0 -40 3 -40 20
0 17 -7 20 -50 20 -43 0 -50 -3 -50 -20 0 -19 -7 -20 -225 -20 -218 0 -225 1
-225 20 0 17 -7 20 -45 20 -38 0 -45 -3 -45 -20z m310 -305 l0 -265 -265 0
-265 0 0 105 0 105 25 0 c24 0 25 3 25 55 0 49 -2 55 -21 55 -17 0 -19 4 -13
23 20 65 83 135 146 162 47 19 48 19 48 -5 0 -18 7 -20 55 -20 52 0 55 1 55
25 l0 25 105 0 105 0 0 -265z m540 -545 l0 -270 -265 0 -265 0 0 270 0 270
265 0 265 0 0 -270z m-540 -550 l0 -270 -265 0 -265 0 0 270 0 270 265 0 265
0 0 -270z m540 -545 l0 -265 -265 0 -265 0 0 265 0 265 265 0 265 0 0 -265z
m-540 -540 l0 -265 -105 0 c-98 0 -105 1 -105 20 0 18 -7 20 -55 20 -42 0 -55
-3 -55 -15 0 -23 -32 -18 -82 14 -48 31 -80 69 -103 125 -15 34 -14 36 5 36
18 0 20 7 20 55 0 52 -1 55 -25 55 l-25 0 0 110 0 110 265 0 265 0 0 -265z"/>
<path d="M7080 4070 c0 -16 -7 -20 -32 -20 -17 0 -39 7 -48 15 -10 9 -25 13
-34 9 -19 -7 -22 -50 -3 -57 7 -2 -5 -21 -32 -48 -27 -27 -46 -39 -48 -31 -7
18 -50 15 -57 -4 -4 -9 0 -24 9 -34 8 -9 15 -31 15 -48 0 -25 -4 -32 -20 -32
-17 0 -20 -7 -20 -50 0 -43 3 -50 20 -50 20 0 20 -7 20 -495 0 -488 0 -495
-20 -495 -17 0 -20 -7 -20 -50 0 -43 3 -50 20 -50 16 0 20 -7 20 -32 0 -17 -7
-39 -15 -48 -9 -10 -13 -25 -9 -34 7 -19 50 -22 57 -3 3 7 21 -4 48 -32 28
-27 39 -45 32 -48 -19 -7 -16 -50 3 -57 9 -4 24 0 34 9 9 8 31 15 48 15 25 0
32 -4 32 -20 0 -17 7 -20 50 -20 43 0 50 3 50 20 0 19 7 20 221 20 212 0 221
-1 226 -20 8 -29 88 -29 96 0 6 25 61 28 84 5 18 -18 32 -16 47 9 9 13 7 20
-7 31 -17 12 -15 16 26 59 34 34 46 42 51 31 7 -20 45 -19 53 0 3 9 -2 24 -12
34 -24 27 -17 75 13 79 19 3 22 9 22 53 0 46 -2 49 -25 49 l-25 0 0 495 0 495
25 0 c23 0 25 3 25 49 0 44 -3 50 -22 53 -30 4 -37 52 -13 79 10 10 15 25 12
34 -8 19 -46 20 -53 0 -5 -11 -17 -3 -51 32 -38 39 -43 47 -29 55 20 11 21 32
1 48 -12 10 -20 9 -40 -4 -35 -23 -76 -21 -82 4 -4 16 -14 20 -48 20 -34 0
-44 -4 -48 -20 -5 -19 -14 -20 -226 -20 -214 0 -221 1 -221 20 0 17 -7 20 -50
20 -43 0 -50 -3 -50 -20z m320 -305 l0 -265 -265 0 -265 0 0 110 c0 103 1 110
20 110 18 0 20 7 20 55 0 42 -3 55 -15 55 -24 0 -17 34 17 81 40 55 44 60 91
87 44 26 67 28 67 7 0 -12 13 -15 55 -15 48 0 55 2 55 20 0 19 7 20 110 20
l110 0 0 -265z m540 -540 l0 -265 -265 0 -265 0 0 265 0 265 265 0 265 0 0
-265z m-540 -540 l0 -265 -110 0 c-103 0 -110 1 -110 20 0 18 -7 20 -55 20
-42 0 -55 -3 -55 -15 0 -22 -25 -18 -70 10 -49 31 -77 60 -101 107 -23 45 -24
58 -4 58 12 0 15 13 15 55 0 48 -2 55 -20 55 -19 0 -20 7 -20 110 l0 110 265
0 265 0 0 -265z"/>
</g>
</svg>
